<?xml version="1.0" standalone="no"?>
<!DOCTYPE svg PUBLIC "-//W3C//DTD SVG 20010904//EN"
 "http://www.w3.org/TR/2001/REC-SVG-20010904/DTD/svg10.dtd">
<svg version="1.0" xmlns="http://www.w3.org/2000/svg"
 width="112.000000pt" height="127.000000pt" viewBox="0 0 112.000000 127.000000"
 preserveAspectRatio="xMidYMid meet">
<metadata>
Created by potrace 1.11, written by Peter Selinger 2001-2013
</metadata>
<g transform="translate(0.000000,127.000000) scale(0.100000,-0.100000)"
fill="#cccccc" stroke="none">
<path d="M285 1124 c-137 -80 -257 -152 -267 -161 -17 -15 -18 -41 -18 -329
l0 -313 32 -24 c64 -47 507 -297 526 -297 25 0 520 284 545 312 15 18 17 49
17 323 0 274 -2 305 -17 323 -26 30 -521 312 -546 312 -12 -1 -134 -66 -272
-146z m515 -54 c124 -72 233 -140 243 -151 15 -19 17 -48 17 -286 0 -156 -4
-272 -10 -283 -5 -10 -63 -50 -127 -88 -261 -152 -350 -202 -366 -202 -9 0
-65 28 -124 63 -60 35 -161 94 -226 132 -65 37 -125 74 -133 82 -11 12 -14 64
-14 291 0 152 4 282 8 289 12 19 465 281 487 282 11 0 121 -58 245 -129z"/>
<path d="M115 887 c-3 -7 -4 -127 -3 -266 3 -217 5 -255 19 -264 11 -7 63 20
222 117 l207 127 207 -127 c159 -97 211 -124 222 -117 14 9 16 46 16 274 0
238 -2 264 -17 267 -9 2 -109 -54 -222 -123 l-206 -126 -205 126 c-113 69
-212 125 -220 125 -9 0 -18 -6 -20 -13z"/>
</g>
</svg>
